<?xml version="1.0" encoding="UTF-8"?>
<!DOCTYPE svg PUBLIC "-//W3C//DTD SVG 1.1//EN" "http://www.w3.org/Graphics/SVG/1.1/DTD/svg11.dtd">
<!-- Creator: CorelDRAW 2019 (64-Bit) -->
<svg xmlns="http://www.w3.org/2000/svg" xml:space="preserve" width="210mm" height="297mm" version="1.1" style="shape-rendering:geometricPrecision; text-rendering:geometricPrecision; image-rendering:optimizeQuality; fill-rule:evenodd; clip-rule:evenodd"
viewBox="0 0 21000 29700"
 xmlns:xlink="http://www.w3.org/1999/xlink"
 xmlns:xodm="http://www.corel.com/coreldraw/odm/2003"
 data-name="Layer 1">
 <defs>
  <style type="text/css">
   <![CDATA[
    .fil1 {fill:#2B2A29;fill-rule:nonzero}
    .fil0 {fill:#2B2A29;fill-rule:nonzero}
   ]]>
  </style>
 </defs>
 <g id="Слой_x0020_1">
  <metadata id="CorelCorpID_0Corel-Layer"/>
  <path class="fil0" d="M-14788.28 3285.47l-1.31 0 -125.01 13.09 0 229.07 125.01 74.37 125.01 -74.37 0 -229.07 -123.7 -13.09zm107.33 232.75l-108.64 64.64 -108.65 -64.64 0 -93.92 108.16 64.39 0 11.7 -74.21 -44.18 0 11.29 74.53 44.75 0 11.95 -74.44 -44.34 0 11.29 74.53 44.75 0 0 75.18 -45 0 -11.37 0 0 0 -36.98 33.54 -20.05 0 95.48 0 0.24zm0 -107.66l-29.86 17.51 0 0 -13.74 8.18 -65.45 -38.94 0 11.29 55.96 33.29 -0.49 0 -1.23 0.74 -8.18 4.66 -46.14 -27.48 0 11.29 36.4 21.68 -8.59 5.72 0 0 -27.49 -16.36 0 11.29 18.09 10.64 -18.41 11.04 -107.67 -63.98 107.75 -64.79 0 0 109.05 64.22zm0 -11.37l-109.21 -64.39 0 0 -108 64.31 0 -85.91 108.65 -11.37 108.65 11.37 0 85.99 -0.09 0z"/>
  <path class="fil1" d="M-14551.65 3411.04l0 -45.96c0,-4.19 -0.25,-7.88 -0.73,-11.05 -0.48,-3.17 -1.37,-5.8 -2.66,-7.9 -1.29,-2.1 -3.04,-3.68 -5.24,-4.76 -2.21,-1.07 -5.08,-1.61 -8.63,-1.61 -5.05,0 -9.62,1.64 -13.71,4.92 -4.08,3.28 -6.72,7.5 -7.9,12.66l0 53.7 -12.9 0 0 -112.89 12.9 0 0 41.29 0.64 0c2.8,-3.34 6.16,-6 10.08,-7.99 3.93,-1.99 8.79,-2.98 14.6,-2.98 4.51,0 8.44,0.51 11.77,1.53 3.33,1.02 6.1,2.82 8.31,5.4 2.2,2.58 3.81,6.05 4.83,10.41 1.03,4.35 1.54,9.86 1.54,16.53l0 48.7 -12.9 0zm25.79 -80.63l12.58 0 0 -15.97 12.9 -3.71 0 19.68 21.94 0 0 11.28 -21.94 0 0 44.68c0,5.59 0.7,9.54 2.1,11.85 1.4,2.31 3.76,3.47 7.1,3.47 2.79,0 5.16,-0.3 7.09,-0.89 1.94,-0.59 4.09,-1.37 6.45,-2.34l2.91 9.84c-2.91,1.4 -6.08,2.52 -9.52,3.39 -3.44,0.86 -7.15,1.29 -11.13,1.29 -6.55,0 -11.18,-1.86 -13.87,-5.57 -2.68,-3.71 -4.03,-9.92 -4.03,-18.63l0 -47.09 -12.58 0 0 -11.28zm112.57 80.63l0 -45.64c0,-4.3 -0.19,-8.04 -0.56,-11.21 -0.38,-3.17 -1.11,-5.83 -2.18,-7.98 -1.08,-2.15 -2.61,-3.76 -4.6,-4.84 -1.99,-1.07 -4.59,-1.61 -7.82,-1.61 -4.95,0 -9.06,1.5 -12.34,4.51 -3.28,3.01 -5.56,6.78 -6.85,11.29l0 55.48 -12.9 0 0 -80.63 9.03 0 2.42 9.83 0.64 0c2.91,-3.44 6.27,-6.26 10.08,-8.46 3.82,-2.21 8.79,-3.31 14.92,-3.31 5.16,0 9.38,0.99 12.66,2.98 3.28,1.99 5.83,5.46 7.66,10.41 2.47,-4.2 5.89,-7.48 10.24,-9.84 4.35,-2.37 9.27,-3.55 14.76,-3.55 4.51,0 8.33,0.51 11.45,1.53 3.11,1.02 5.7,2.82 7.74,5.4 2.04,2.58 3.52,6.08 4.43,10.49 0.92,4.4 1.37,10 1.37,16.77l0 48.38 -12.9 0 0 -48.54c0,-3.87 -0.19,-7.23 -0.56,-10.08 -0.38,-2.85 -1.13,-5.22 -2.26,-7.1 -1.13,-1.88 -2.69,-3.28 -4.68,-4.19 -1.99,-0.91 -4.59,-1.37 -7.82,-1.37 -5.37,0 -9.57,1.5 -12.58,4.51 -3.01,3.01 -5.16,7.32 -6.45,12.91l0 53.86 -12.9 0zm98.05 -19.84c0,3.77 0.65,6.45 1.94,8.07 1.29,1.61 3.11,2.42 5.48,2.42 1.4,0 2.9,-0.11 4.51,-0.33 1.62,-0.21 3.45,-0.7 5.49,-1.45l1.45 10.16c-1.72,0.86 -4.11,1.56 -7.18,2.1 -3.06,0.54 -5.72,0.81 -7.98,0.81 -4.84,0 -8.82,-1.38 -11.93,-4.12 -3.12,-2.74 -4.68,-7.39 -4.68,-13.95l0 -96.76 12.9 0 0 93.05zm-289.47 59.94c4.08,-2.47 8.84,-4.3 14.27,-5.48 5.43,-1.18 11.1,-1.78 17.01,-1.78 5.59,0 10.08,0.76 13.47,2.26 3.39,1.51 5.97,3.47 7.74,5.89 1.77,2.42 2.96,5.08 3.55,7.98 0.59,2.9 0.89,5.81 0.89,8.71 0,6.45 -0.17,12.74 -0.49,18.87 -0.32,6.13 -0.48,11.93 -0.48,17.42 0,3.97 0.16,7.74 0.48,11.29 0.32,3.54 0.92,6.82 1.78,9.83l-9.52 0 -3.39 -11.29 -0.8 0c-0.97,1.51 -2.18,2.99 -3.63,4.44 -1.45,1.45 -3.2,2.74 -5.24,3.87 -2.04,1.13 -4.41,2.07 -7.1,2.82 -2.69,0.75 -5.75,1.13 -9.19,1.13 -3.44,0 -6.64,-0.54 -9.6,-1.61 -2.95,-1.08 -5.51,-2.61 -7.66,-4.6 -2.15,-1.99 -3.84,-4.38 -5.08,-7.18 -1.23,-2.79 -1.85,-5.96 -1.85,-9.51 0,-4.73 0.97,-8.68 2.9,-11.85 1.94,-3.18 4.65,-5.7 8.15,-7.58 3.49,-1.88 7.68,-3.23 12.58,-4.03 4.89,-0.81 10.29,-1.21 16.2,-1.21 1.51,0 2.99,0 4.44,0 1.45,0 2.93,0.1 4.43,0.32 0.33,-3.23 0.49,-6.13 0.49,-8.71 0,-5.91 -1.19,-10.05 -3.55,-12.42 -2.37,-2.36 -6.67,-3.55 -12.9,-3.55 -1.83,0 -3.79,0.14 -5.89,0.41 -2.1,0.27 -4.25,0.64 -6.45,1.13 -2.2,0.48 -4.3,1.07 -6.29,1.77 -1.99,0.7 -3.74,1.48 -5.24,2.34l-4.03 -9.68zm22.9 64.67c3.01,0 5.7,-0.4 8.06,-1.21 2.37,-0.8 4.41,-1.83 6.13,-3.06 1.72,-1.24 3.14,-2.61 4.27,-4.11 1.13,-1.51 1.97,-2.96 2.5,-4.36l0 -13.38c-1.5,-0.11 -3.03,-0.19 -4.59,-0.25 -1.56,-0.05 -3.09,-0.08 -4.6,-0.08 -3.33,0 -6.58,0.19 -9.76,0.57 -3.17,0.37 -5.96,1.07 -8.38,2.09 -2.42,1.03 -4.36,2.42 -5.81,4.2 -1.45,1.77 -2.18,4 -2.18,6.69 0,3.76 1.35,6.85 4.04,9.27 2.68,2.42 6.12,3.63 10.32,3.63zm113.37 4.68c-3.22,2.36 -7.04,4.16 -11.45,5.4 -4.41,1.24 -9.03,1.86 -13.87,1.86 -6.23,0 -11.5,-1 -15.8,-2.99 -4.3,-1.99 -7.82,-4.84 -10.57,-8.55 -2.74,-3.7 -4.73,-8.17 -5.96,-13.38 -1.24,-5.22 -1.86,-10.99 -1.86,-17.34 0,-13.65 3.01,-24.11 9.03,-31.36 6.02,-7.26 14.68,-10.89 25.97,-10.89 5.16,0 9.54,0.4 13.14,1.21 3.6,0.81 6.86,1.96 9.76,3.47l-3.71 11.12c-2.47,-1.39 -5.22,-2.5 -8.23,-3.3 -3.01,-0.81 -6.23,-1.21 -9.67,-1.21 -15.27,0 -22.9,10.32 -22.9,30.96 0,4.09 0.4,7.99 1.21,11.69 0.8,3.71 2.15,6.99 4.03,9.84 1.88,2.85 4.35,5.14 7.42,6.86 3.06,1.72 6.85,2.58 11.37,2.58 3.87,0 7.33,-0.59 10.4,-1.78 3.06,-1.18 5.56,-2.52 7.5,-4.03l4.19 9.84zm16.45 -69.35c4.08,-2.47 8.84,-4.3 14.27,-5.48 5.43,-1.18 11.1,-1.78 17.01,-1.78 5.59,0 10.08,0.76 13.47,2.26 3.39,1.51 5.97,3.47 7.74,5.89 1.77,2.42 2.96,5.08 3.55,7.98 0.59,2.9 0.89,5.81 0.89,8.71 0,6.45 -0.17,12.74 -0.49,18.87 -0.32,6.13 -0.48,11.93 -0.48,17.42 0,3.97 0.16,7.74 0.48,11.29 0.32,3.54 0.92,6.82 1.78,9.83l-9.52 0 -3.39 -11.29 -0.8 0c-0.97,1.51 -2.18,2.99 -3.63,4.44 -1.45,1.45 -3.2,2.74 -5.24,3.87 -2.04,1.13 -4.41,2.07 -7.1,2.82 -2.69,0.75 -5.75,1.13 -9.19,1.13 -3.44,0 -6.64,-0.54 -9.6,-1.61 -2.95,-1.08 -5.51,-2.61 -7.66,-4.6 -2.15,-1.99 -3.84,-4.38 -5.08,-7.18 -1.23,-2.79 -1.85,-5.96 -1.85,-9.51 0,-4.73 0.97,-8.68 2.9,-11.85 1.94,-3.18 4.65,-5.7 8.15,-7.58 3.49,-1.88 7.68,-3.23 12.58,-4.03 4.89,-0.81 10.29,-1.21 16.2,-1.21 1.51,0 2.99,0 4.44,0 1.45,0 2.93,0.1 4.43,0.32 0.33,-3.23 0.49,-6.13 0.49,-8.71 0,-5.91 -1.19,-10.05 -3.55,-12.42 -2.37,-2.36 -6.67,-3.55 -12.9,-3.55 -1.83,0 -3.79,0.14 -5.89,0.41 -2.1,0.27 -4.25,0.64 -6.45,1.13 -2.2,0.48 -4.3,1.07 -6.29,1.77 -1.99,0.7 -3.74,1.48 -5.24,2.34l-4.03 -9.68zm22.9 64.67c3.01,0 5.7,-0.4 8.06,-1.21 2.37,-0.8 4.41,-1.83 6.13,-3.06 1.72,-1.24 3.14,-2.61 4.27,-4.11 1.13,-1.51 1.97,-2.96 2.5,-4.36l0 -13.38c-1.5,-0.11 -3.03,-0.19 -4.59,-0.25 -1.56,-0.05 -3.09,-0.08 -4.6,-0.08 -3.33,0 -6.58,0.19 -9.76,0.57 -3.17,0.37 -5.96,1.07 -8.38,2.09 -2.42,1.03 -4.36,2.42 -5.81,4.2 -1.45,1.77 -2.18,4 -2.18,6.69 0,3.76 1.35,6.85 4.04,9.27 2.68,2.42 6.12,3.63 10.32,3.63zm120.31 -17.74c0,5.48 0.05,10.46 0.16,14.92 0.1,4.46 0.59,8.84 1.45,13.14l-8.71 0 -3.23 -11.45 -0.64 0c-2.15,3.77 -5.27,6.88 -9.35,9.36 -4.09,2.47 -8.87,3.71 -14.36,3.71 -10.75,0 -18.73,-3.39 -23.95,-10.16 -5.21,-6.78 -7.82,-17.37 -7.82,-31.77 0,-13.77 3.25,-24.22 9.76,-31.37 6.5,-7.15 15.45,-10.73 26.85,-10.73 3.98,0 7.12,0.22 9.43,0.65 2.32,0.43 4.82,1.13 7.5,2.1l0 -33.55 12.91 0 0 85.15zm-32.58 18.39c5.48,0 9.84,-1.43 13.06,-4.28 3.23,-2.85 5.43,-7.17 6.61,-12.98l0 -39.99c-1.93,-1.51 -4.14,-2.58 -6.61,-3.23 -2.47,-0.64 -5.75,-0.97 -9.84,-0.97 -7.41,0 -13.22,2.45 -17.41,7.34 -4.2,4.89 -6.29,12.71 -6.29,23.47 0,4.4 0.35,8.49 1.05,12.25 0.69,3.76 1.85,6.99 3.46,9.68 1.62,2.69 3.74,4.81 6.37,6.37 2.64,1.56 5.84,2.34 9.6,2.34zm116.27 2.9c-3.22,2.58 -7.28,4.62 -12.17,6.13 -4.9,1.5 -10.08,2.26 -15.57,2.26 -6.13,0 -11.45,-1 -15.96,-2.99 -4.52,-1.99 -8.23,-4.84 -11.13,-8.55 -2.9,-3.7 -5.05,-8.14 -6.45,-13.3 -1.4,-5.16 -2.1,-10.97 -2.1,-17.42 0,-13.76 3.07,-24.24 9.19,-31.45 6.13,-7.2 14.9,-10.8 26.29,-10.8 3.66,0 7.31,0.4 10.97,1.21 3.65,0.81 6.93,2.34 9.84,4.6 2.9,2.25 5.26,5.45 7.09,9.59 1.83,4.14 2.74,9.6 2.74,16.37 0,3.55 -0.32,7.47 -0.96,11.77l-51.77 0c0,4.73 0.48,8.93 1.45,12.58 0.97,3.66 2.47,6.75 4.51,9.27 2.05,2.53 4.71,4.47 7.99,5.81 3.28,1.34 7.28,2.02 12.01,2.02 3.66,0 7.31,-0.65 10.97,-1.94 3.65,-1.29 6.4,-2.79 8.22,-4.51l4.84 9.35zm-27.74 -64.83c-6.34,0 -11.42,1.67 -15.24,5 -3.81,3.33 -6.1,9.03 -6.85,17.09l39.99 0c0,-8.17 -1.56,-13.89 -4.67,-17.17 -3.12,-3.28 -7.53,-4.92 -13.23,-4.92zm98.06 71.28l0 -45.64c0,-4.3 -0.19,-8.04 -0.56,-11.21 -0.38,-3.17 -1.11,-5.83 -2.18,-7.98 -1.08,-2.15 -2.61,-3.76 -4.6,-4.84 -1.99,-1.07 -4.59,-1.61 -7.82,-1.61 -4.95,0 -9.06,1.5 -12.34,4.51 -3.28,3.01 -5.56,6.78 -6.85,11.29l0 55.48 -12.9 0 0 -80.63 9.03 0 2.42 9.83 0.64 0c2.91,-3.44 6.27,-6.26 10.08,-8.46 3.82,-2.21 8.79,-3.31 14.92,-3.31 5.16,0 9.38,0.99 12.66,2.98 3.28,1.99 5.83,5.46 7.66,10.41 2.47,-4.2 5.89,-7.48 10.24,-9.84 4.35,-2.37 9.27,-3.55 14.76,-3.55 4.51,0 8.33,0.51 11.45,1.53 3.11,1.02 5.7,2.82 7.74,5.4 2.04,2.58 3.52,6.08 4.43,10.49 0.92,4.4 1.37,10 1.37,16.77l0 48.38 -12.9 0 0 -48.54c0,-3.87 -0.19,-7.23 -0.56,-10.08 -0.38,-2.85 -1.13,-5.22 -2.26,-7.1 -1.13,-1.88 -2.69,-3.28 -4.68,-4.19 -1.99,-0.91 -4.59,-1.37 -7.82,-1.37 -5.37,0 -9.57,1.5 -12.58,4.51 -3.01,3.01 -5.16,7.32 -6.45,12.91l0 53.86 -12.9 0zm107.4 -28.38l4.52 15.48 0.81 0 3.54 -15.64 15.65 -52.09 13.06 0 -23.87 72.41c-1.83,5.26 -3.63,10.37 -5.4,15.32 -1.77,4.94 -3.74,9.35 -5.89,13.22 -2.15,3.87 -4.57,6.96 -7.25,9.27 -2.69,2.31 -5.81,3.47 -9.36,3.47 -3.87,0 -7.04,-0.54 -9.51,-1.61l2.26 -11.13c1.39,0.54 2.74,0.81 4.03,0.81 3.01,0 5.91,-1.59 8.71,-4.76 2.79,-3.17 5.1,-8.63 6.93,-16.37l-32.41 -80.63 14.83 0 19.35 52.25z"/>
 </g>
</svg>
